<svg xmlns="http://www.w3.org/2000/svg" viewBox="0 0 253.83369 253.8326">
  <defs>
    <style>
      .cls-1 {
        fill: #003686;
      }

      .cls-2 {
        fill: #a6165f;
      }

      .cls-3 {
        fill: #fff;
      }

      .cls-4 {
        fill: none;
      }
    </style>
  </defs>
  <title>자산 1</title>
  <g id="레이어_2" data-name="레이어 2">
    <g id="레이어_1-2" data-name="레이어 1">
      <g>
        <path class="cls-1" d="M126.9224,0A126.95562,126.95562,0,1,0,253.83289,126.916,126.92646,126.92646,0,0,0,126.9224,0"/>
        <path class="cls-2" d="M126.9224,222.2104a95.29175,95.29175,0,1,1,95.29-95.29,95.28714,95.28714,0,0,1-95.29,95.29"/>
        <path class="cls-3" d="M126.9224,223.6788a96.7612,96.7612,0,1,1,96.75489-96.7586,96.86909,96.86909,0,0,1-96.75489,96.7586m0-190.5835A93.8223,93.8223,0,1,0,220.742,126.9202,93.92948,93.92948,0,0,0,126.9224,33.0953"/>
        <path class="cls-3" d="M72.3159,230.7408l-2.296-1.2518,4.7173-8.6413a9.00556,9.00556,0,0,1-3.9113.1218l1.139-2.0829a7.489,7.489,0,0,0,2.552-.0483,4.79678,4.79678,0,0,0,2.4876-1.1265l1.8573,1.0173Z"/>
        <path class="cls-3" d="M79.0242,230.5975l2.4464.7074a1.80926,1.80926,0,0,0,.009,1.2412,1.40833,1.40833,0,0,0,.8112.7343,1.67425,1.67425,0,0,0,1.5581-.1613,6.40045,6.40045,0,0,0,1.8447-2.5753,3.12106,3.12106,0,0,1-2.7133.1164,3.67932,3.67932,0,0,1-2.09-2.2046,4.52361,4.52361,0,0,1,.154-3.4315,4.58744,4.58744,0,0,1,2.4106-2.62,4.17645,4.17645,0,0,1,3.3831.025,4.251,4.251,0,0,1,2.5378,2.7813q.60435,1.99065-.7881,5.3836-1.4238,3.452-3.3365,4.454a4.45888,4.45888,0,0,1-3.9597.154,3.81019,3.81019,0,0,1-2.0667-1.7712,4.10542,4.10542,0,0,1-.2006-2.8333m7.6437-3.0213a2.99774,2.99774,0,0,0,.2095-2.0363,1.71338,1.71338,0,0,0-.9743-1.1533,1.49751,1.49751,0,0,0-1.3288.068,2.89732,2.89732,0,0,0-1.1588,1.5474,3.00328,3.00328,0,0,0-.2614,1.9915,1.65294,1.65294,0,0,0,.9706,1.0692,1.62011,1.62011,0,0,0,1.3952-.0662,2.62688,2.62688,0,0,0,1.148-1.4203"/>
        <path class="cls-3" d="M94.6206,239.6182l.7647-2.6326-5.353-1.5564.6393-2.1974,8.086-6.6623,2.1062.6125-2.4124,8.3028,1.6261.471-.6429,2.2082-1.6207-.4764-.7666,2.6344Zm1.4023-4.8391,1.3002-4.4719-4.309,3.5962Z"/>
        <path class="cls-3" d="M103.9718,230.7155l.4209-2.3909,8.7863,1.5492-.3242,1.8697a14.0523,14.0523,0,0,0-2.7544,2.6847,18.25931,18.25931,0,0,0-2.4662,3.9597,16.02124,16.02124,0,0,0-1.2894,3.9311l-2.4805-.437a17.50609,17.50609,0,0,1,2.1473-5.4749,19.10852,19.10852,0,0,1,3.8094-4.6618Z"/>
        <polygon class="cls-3" points="122.417 244.226 122.218 232.2 124.645 232.161 124.733 237.499 129.545 232.08 132.81 232.028 128.363 236.785 133.25 244.051 130.113 244.099 126.715 238.51 124.781 240.551 124.838 244.183 122.417 244.226"/>
        <path class="cls-3" d="M135.3485,238.0691a7.66818,7.66818,0,0,1,.1719-3.127,5.58419,5.58419,0,0,1,.9098-1.7712,4.7055,4.7055,0,0,1,1.4131-1.2662,6.64657,6.64657,0,0,1,2.5144-.788,5.62456,5.62456,0,0,1,4.4146,1.1193,7.36413,7.36413,0,0,1,1.1265,9.0729,6.31546,6.31546,0,0,1-8.4263,1.0423,6.2295,6.2295,0,0,1-2.124-4.2821m2.4733-.3851a4.50752,4.50752,0,0,0,1.3145,2.9586,3.0765,3.0765,0,0,0,2.5019.7576,3.04012,3.04012,0,0,0,2.2351-1.3342,4.59481,4.59481,0,0,0,.5462-3.2237,4.52487,4.52487,0,0,0-1.2733-2.9514,3.35173,3.35173,0,0,0-4.7854.5999,4.539,4.539,0,0,0-.539,3.1932"/>
        <path class="cls-3" d="M151.6702,241.7244l-2.939-11.659,4.9573-1.2483a8.55438,8.55438,0,0,1,2.7938-.3707,2.78179,2.78179,0,0,1,1.6334.7737,3.40025,3.40025,0,0,1,.9707,1.7103,3.1902,3.1902,0,0,1-.2221,2.3605,3.836,3.836,0,0,1-2.0345,1.662,5.73958,5.73958,0,0,1,1.5098.6572,14.12968,14.12968,0,0,1,1.8124,1.5546l1.9968,1.9163-2.8117.7092-2.3407-2.1062a16.60048,16.60048,0,0,0-1.6745-1.4023,1.89693,1.89693,0,0,0-.8257-.3062,4.084,4.084,0,0,0-1.2214.1701l-.4746.1182,1.2268,4.8696Zm.6644-7.3214,1.7318-.4405a9.0799,9.0799,0,0,0,2.0846-.6752,1.33976,1.33976,0,0,0,.5319-.6608,1.53958,1.53958,0,0,0,.0198-.9349,1.44438,1.44438,0,0,0-.5517-.8704,1.51747,1.51747,0,0,0-1.0047-.2364c-.1952.0233-.7719.1558-1.7246.3958l-1.8393.4638Z"/>
        <polygon class="cls-3" points="165.403 237.962 161.121 226.724 169.443 223.55 170.17 225.448 164.112 227.761 165.061 230.252 170.699 228.101 171.422 229.996 165.781 232.145 166.941 235.205 173.217 232.815 173.94 234.706 165.403 237.962"/>
        <path class="cls-3" d="M187.3864,227.9684l-2.3353,1.2232-2.1975-1.9378-4.257,2.2208.3778,2.8833-2.2762,1.1928-1.4095-12.8284,2.2762-1.1874Zm-6.1554-2.1491-3.5335-3.1914.6233,4.7065Z"/>
        <path class="cls-3" d="M19.6429,131.2505a16.21667,16.21667,0,0,1-2.8046,8.7183,14.4723,14.4723,0,0,1-.1899-17.3702,16.20935,16.20935,0,0,1,2.9945,8.6519"/>
        <path class="cls-3" d="M50.5905,193.4052a27.7001,27.7001,0,0,0-1.157,10.6919,26.92389,26.92389,0,0,0,.446,2.8243,24.942,24.942,0,0,0-3.8129-1.327,27.67433,27.67433,0,0,0-10.7384-.5033,27.69022,27.69022,0,0,0,9.6459,4.746,26.46027,26.46027,0,0,0,5.9799.7987c.9815.0233,1.8501-.0072,2.5754-.0555.0806-.5015.1576-1.0423.2149-1.6119a25.75229,25.75229,0,0,0,.0466-5.294,27.63844,27.63844,0,0,0-3.2004-10.2692"/>
        <path class="cls-3" d="M58.0497,201.638a27.74568,27.74568,0,0,0-.5248,10.742,26.34987,26.34987,0,0,0,.6161,2.792,25.12827,25.12827,0,0,0-3.8863-1.096,27.689,27.689,0,0,0-10.7474.1397,27.6702,27.6702,0,0,0,9.9128,4.1603,26.71778,26.71778,0,0,0,6.0175.4424c.9779-.0358,1.8447-.1164,2.5664-.2096.052-.505.0932-1.0513.1146-1.6208a25.96117,25.96117,0,0,0-.2632-5.2886,27.76117,27.76117,0,0,0-3.8057-10.0614"/>
        <path class="cls-3" d="M43.8903,185.0774a27.72139,27.72139,0,0,0-2.3211,10.5057,23.74375,23.74375,0,0,0,.1397,2.8511,25.52657,25.52657,0,0,0-3.6535-1.7336,27.6941,27.6941,0,0,0-10.6184-1.6763,27.65016,27.65016,0,0,0,9.071,5.7739,26.43437,26.43437,0,0,0,5.8546,1.4453c.9742.1308,1.8482.197,2.5682.2275.1325-.4854.265-1.0173.3922-1.5778a26.57519,26.57519,0,0,0,.625-5.26,27.84522,27.84522,0,0,0-2.0577-10.5558"/>
        <path class="cls-3" d="M38.1362,176.0674a27.67081,27.67081,0,0,0-3.4565,10.1851,23.96077,23.96077,0,0,0-.1791,2.8511,25.59419,25.59419,0,0,0-3.4368-2.1222,27.66167,27.66167,0,0,0-10.3713-2.8243,27.70151,27.70151,0,0,0,8.387,6.7303,26.50674,26.50674,0,0,0,5.6611,2.0775c.9546.2364,1.8124.394,2.5288.5068.1862-.471.3761-.9832.5587-1.5295a26.25873,26.25873,0,0,0,1.1982-5.1596,27.7513,27.7513,0,0,0-.8901-10.7152"/>
        <path class="cls-3" d="M33.3949,166.4779a27.72,27.72,0,0,0-4.5436,9.7552,25.77964,25.77964,0,0,0-.489,2.8118,25.3618,25.3618,0,0,0-3.1842-2.4894,27.77717,27.77717,0,0,0-10.0041-3.9418,27.73708,27.73708,0,0,0,7.6043,7.6096,26.46007,26.46007,0,0,0,5.4014,2.6811c.9205.3384,1.7569.5909,2.4572.7808.24-.446.4781-.9349.7217-1.456a26.25994,26.25994,0,0,0,1.7569-4.9949,27.74155,27.74155,0,0,0,.2794-10.7564"/>
        <path class="cls-3" d="M29.7308,156.4355a27.78463,27.78463,0,0,0-5.5805,9.1929,24.91843,24.91843,0,0,0-.7898,2.7454,26.14344,26.14344,0,0,0-2.8906-2.8242,27.78309,27.78309,0,0,0-9.5134-5.0111,27.65506,27.65506,0,0,0,6.7249,8.3941,26.44041,26.44041,0,0,0,5.0755,3.2595c.8812.4388,1.6799.7808,2.3533,1.0423.2866-.419.5821-.8757.8794-1.3682a26.12851,26.12851,0,0,0,2.2888-4.7711,27.76914,27.76914,0,0,0,1.4524-10.6596"/>
        <path class="cls-3" d="M27.1913,146.0502a27.6748,27.6748,0,0,0-6.5494,8.5267,22.89317,22.89317,0,0,0-1.0907,2.6416,25.05085,25.05085,0,0,0-2.57-3.1216,27.69967,27.69967,0,0,0-8.9081-6.0211,27.75207,27.75207,0,0,0,5.7704,9.08,26.45445,26.45445,0,0,0,4.694,3.7932c.8239.5301,1.5832.9564,2.2243,1.2949.3296-.3851.6699-.8095,1.0209-1.2662a25.56265,25.56265,0,0,0,2.792-4.4935,27.65618,27.65618,0,0,0,2.6166-10.434"/>
        <path class="cls-3" d="M25.7938,135.4445a27.74993,27.74993,0,0,0-7.4449,7.7619,24.96969,24.96969,0,0,0-1.3646,2.5038,26.66909,26.66909,0,0,0-2.2119-3.3813,27.7476,27.7476,0,0,0-8.197-6.9578,27.66944,27.66944,0,0,0,4.7442,9.6549,26.35282,26.35282,0,0,0,4.248,4.2839c.7629.6161,1.4668,1.1265,2.0703,1.5313.3707-.3457.754-.7343,1.1516-1.1444a26.13745,26.13745,0,0,0,3.2738-4.1604,27.67133,27.67133,0,0,0,3.7305-10.0919"/>
        <path class="cls-3" d="M234.185,131.2505a16.2154,16.2154,0,0,0,2.8099,8.7183,14.47587,14.47587,0,0,0,.1881-17.3702,16.21446,16.21446,0,0,0-2.998,8.6519"/>
        <path class="cls-3" d="M203.23959,193.4052a27.7015,27.7015,0,0,1,1.1605,10.6919,25.58332,25.58332,0,0,1-.4513,2.8243,25.19027,25.19027,0,0,1,3.8164-1.327,27.67308,27.67308,0,0,1,10.7384-.5033,27.71125,27.71125,0,0,1-9.6459,4.746,26.436,26.436,0,0,1-5.9817.7987c-.9761.0233-1.85-.0072-2.5754-.0555-.0805-.5015-.1575-1.0423-.2167-1.6119a26.15493,26.15493,0,0,1-.0447-5.294,27.713,27.713,0,0,1,3.2004-10.2692"/>
        <path class="cls-3" d="M195.78579,201.638a27.70746,27.70746,0,0,1,.5175,10.742,25.48536,25.48536,0,0,1-.6161,2.792,25.352,25.352,0,0,1,3.8899-1.096,27.67784,27.67784,0,0,1,10.7456.1397,27.61488,27.61488,0,0,1-9.90919,4.1603,26.78292,26.78292,0,0,1-6.02111.4424c-.9778-.0358-1.84289-.1164-2.5664-.2096-.0483-.505-.0914-1.0513-.1164-1.6208a26.37966,26.37966,0,0,1,.2668-5.2886,27.76522,27.76522,0,0,1,3.8094-10.0614"/>
        <path class="cls-3" d="M209.94129,185.0774a27.74555,27.74555,0,0,1,2.3228,10.5057,25.32583,25.32583,0,0,1-.1362,2.8511,25.22906,25.22906,0,0,1,3.64461-1.7336,27.71618,27.71618,0,0,1,10.62379-1.6763,27.716,27.716,0,0,1-9.0747,5.7739,26.38431,26.38431,0,0,1-5.8545,1.4453c-.9689.1308-1.8411.197-2.56459.2275-.13611-.4854-.26861-1.0173-.38871-1.5778a26.1622,26.1622,0,0,1-.6322-5.26,27.86637,27.86637,0,0,1,2.0597-10.5558"/>
        <path class="cls-3" d="M215.6955,176.0674a27.74869,27.74869,0,0,1,3.45649,10.1851,25.58432,25.58432,0,0,1,.1773,2.8511,25.50358,25.50358,0,0,1,3.4385-2.1222,27.65244,27.65244,0,0,1,10.36771-2.8243,27.6863,27.6863,0,0,1-8.38331,6.7303,26.47367,26.47367,0,0,1-5.6611,2.0775c-.95459.2364-1.8179.394-2.5289.5068-.188-.471-.3778-.9832-.55869-1.5295a26.12637,26.12637,0,0,1-1.19991-5.1596,27.73066,27.73066,0,0,1,.89191-10.7152"/>
        <path class="cls-3" d="M220.43429,166.4779a27.78232,27.78232,0,0,1,4.5489,9.7552,24.88722,24.88722,0,0,1,.4854,2.8118,25.86637,25.86637,0,0,1,3.1825-2.4894,27.77649,27.77649,0,0,1,10.0041-3.9418,27.61813,27.61813,0,0,1-7.5971,7.6096,26.65209,26.65209,0,0,1-5.4104,2.6811c-.9134.3384-1.7533.5909-2.4554.7808-.2346-.446-.4764-.9349-.7217-1.456a25.65437,25.65437,0,0,1-1.748-4.9949,27.808,27.808,0,0,1-.2883-10.7564"/>
        <path class="cls-3" d="M224.10029,156.4355a27.75005,27.75005,0,0,1,5.5806,9.1929,24.19456,24.19456,0,0,1,.7897,2.7454,25.46216,25.46216,0,0,1,2.896-2.8242,27.767,27.767,0,0,1,9.5116-5.0111,27.59588,27.59588,0,0,1-6.7231,8.3941,26.63939,26.63939,0,0,1-5.0827,3.2595c-.8776.4388-1.67989.7808-2.3515,1.0423-.2865-.419-.5838-.8757-.8775-1.3682a25.88912,25.88912,0,0,1-2.2907-4.7711,27.76914,27.76914,0,0,1-1.4524-10.6596"/>
        <path class="cls-3" d="M226.63989,146.0502a27.67325,27.67325,0,0,1,6.5547,8.5267,24.56908,24.56908,0,0,1,1.0854,2.6416,25.529,25.529,0,0,1,2.5699-3.1216,27.72311,27.72311,0,0,1,8.9063-6.0211,27.72811,27.72811,0,0,1-5.7686,9.08,26.43249,26.43249,0,0,1-4.6904,3.7932c-.8292.5301-1.58669.9564-2.2243,1.2949-.33139-.3851-.6752-.8095-1.02439-1.2662a25.781,25.781,0,0,1-2.79931-4.4935,27.76462,27.76462,0,0,1-2.6093-10.434"/>
        <path class="cls-3" d="M228.03679,135.4445a27.73034,27.73034,0,0,1,7.4431,7.7619,25.01966,25.01966,0,0,1,1.3682,2.5038,26.12241,26.12241,0,0,1,2.2136-3.3813,27.75427,27.75427,0,0,1,8.1953-6.9578,27.722,27.722,0,0,1-4.7424,9.6549,26.7239,26.7239,0,0,1-4.2498,4.2839c-.763.6161-1.474,1.1265-2.0721,1.5313-.3708-.3457-.7558-.7343-1.1534-1.1444a26.53962,26.53962,0,0,1-3.2702-4.1604,27.77465,27.77465,0,0,1-3.7323-10.0919"/>
        <path class="cls-3" d="M19.9453,103.5648a1.68688,1.68688,0,0,1,1.2949,2.004l-.2185,1.0209a1.68575,1.68575,0,0,1-2.0041,1.293l-.5158,2.3873a4.12774,4.12774,0,0,0,4.9018-3.1645l.2185-1.0244a4.13209,4.13209,0,0,0-3.161-4.8982l-8.8006-1.8966-.5104,2.3856Z"/>
        <path class="cls-3" d="M53.1438,46.591a1.6794,1.6794,0,0,1-.0305,2.3838l-1.6172,1.5814a1.68911,1.68911,0,0,1-2.3837-.0269l-6.2862-6.4492-1.7443,1.7014,6.2826,6.4473a4.13043,4.13043,0,0,0,5.8366.0752l1.6244-1.5831a4.13472,4.13472,0,0,0,.0644-5.8348l-6.2825-6.4473-1.7462,1.7049Z"/>
        <path class="cls-3" d="M175.5921,29.8213a1.681,1.681,0,0,1-2.2315.8203l-2.056-.951a1.69025,1.69025,0,0,1-.822-2.2387l3.7842-8.1701-2.2154-1.0262-3.7806,8.1737a4.12816,4.12816,0,0,0,2.0076,5.4767l2.0542.951a4.1262,4.1262,0,0,0,5.4731-2.0112l3.7824-8.172-2.21-1.028Z"/>
        <polygon class="cls-3" points="24.816 99.425 27.739 90.662 25.429 89.888 23.28 96.337 20.636 95.454 22.316 90.411 20.002 89.639 18.319 94.685 15.84 93.857 17.993 87.408 15.679 86.632 12.752 95.397 24.816 99.425"/>
        <polygon class="cls-3" points="157.858 13.511 155.528 12.807 151.835 25.075 160.673 27.739 161.377 25.404 154.87 23.439 157.858 13.511"/>
        <polygon class="cls-3" points="202.065 53.807 208.561 60.375 210.291 58.659 205.512 53.825 207.49 51.864 211.233 55.645 212.964 53.927 209.229 50.148 211.089 48.306 215.867 53.143 217.598 51.425 211.104 44.86 202.065 53.807"/>
        <path class="cls-3" d="M25.2307,74.1077a6.58965,6.58965,0,1,0,6.5817,6.5906,6.59533,6.59533,0,0,0-6.5817-6.5906m0,10.6147a4.02685,4.02685,0,1,1,4.0224-4.0241,4.0279,4.0279,0,0,1-4.0224,4.0241"/>
        <path class="cls-3" d="M117.2052,9.6521a6.59145,6.59145,0,1,0,6.587,6.5923,6.59912,6.59912,0,0,0-6.587-6.5923m0,10.6183a4.02685,4.02685,0,1,1,4.0259-4.026,4.03186,4.03186,0,0,1-4.0259,4.026"/>
        <polygon class="cls-3" points="92.224 16.555 96.427 15.596 98.745 25.75 101.12 25.208 98.808 15.055 103.007 14.093 102.47 11.715 91.68 14.175 92.224 16.555"/>
        <polygon class="cls-3" points="234.441 83.96 236.005 87.984 226.294 91.749 227.172 94.024 236.879 90.263 238.438 94.283 240.717 93.402 236.717 83.077 234.441 83.96"/>
        <polygon class="cls-3" points="57.719 31.108 56.65 37.79 56.585 38.16 53.612 34.154 51.653 35.608 59.288 45.899 61.247 44.441 58.278 40.447 58.656 40.496 65.363 41.405 67.933 39.491 58.996 38.141 60.298 29.195 57.719 31.108"/>
        <polygon class="cls-3" points="35.149 66.611 25.027 66.972 25.027 67.003 24.957 66.96 23.653 69.018 34.472 75.875 35.778 73.817 28.626 69.286 38.794 68.919 38.856 68.957 40.16 66.894 29.345 60.036 28.034 62.097 35.149 66.611"/>
        <rect class="cls-3" x="106.18488" y="10.79112" width="2.43948" height="12.81146" transform="translate(-1.3314 20.01836) rotate(-10.58297)"/>
        <rect class="cls-3" x="187.66761" y="36.67033" width="12.81136" height="2.43764" transform="translate(55.23764 178.68934) rotate(-56.44948)"/>
        <rect class="cls-3" x="222.74254" y="81.03578" width="12.81367" height="2.44404" transform="translate(-13.6552 100.1944) rotate(-23.97154)"/>
        <polygon class="cls-3" points="79.1 28.293 70.11 23.619 70.097 23.644 70.061 23.574 67.907 24.726 73.944 36.023 76.097 34.872 72.103 27.409 81.138 32.101 81.165 32.158 83.319 31.01 77.279 19.711 75.128 20.863 79.1 28.293"/>
        <path class="cls-3" d="M87.1233,16.0126l-2.2423.7969-.274.0985-.1952,13.6684,2.5145-.8973.0501-3.0051,4.7496-1.6925,1.9377,2.3014,2.5145-.8973L87.4027,15.9141Zm-.1092,8.0609.059-4.6438,2.982,3.5567Z"/>
        <path class="cls-3" d="M40.9898,51.4391a3.79817,3.79817,0,0,0-5.3262.6376l-3.9723,4.9966L41.7169,65.068l3.9777-4.993a3.94855,3.94855,0,0,0-.5892-5.5501,3.85428,3.85428,0,0,0-2.7706-.8257,3.71676,3.71676,0,0,0-1.345-2.2601m-5.7292,5.2277,2.3945-3.0017a1.22133,1.22133,0,1,1,1.9073,1.5224l-2.389,3.0034Zm8.4443,1.8213-2.3928,3.0034-2.1455-1.7139,2.3927-3.0034v.0018a1.37354,1.37354,0,1,1,2.1456,1.7121"/>
        <path class="cls-3" d="M223.20479,65.5945a3.80558,3.80558,0,0,0,1.0298-5.267l-3.6463-5.4963L209.9305,61.9017l1.40229,2.1223,4.3842-2.9103,2.2351,3.3777v.0017a1.41927,1.41927,0,0,1-.3564,1.9503l-3.2327,2.1474,1.4059,2.124,3.23261-2.149a3.8614,3.8614,0,0,0,1.64049-2.3856,3.70768,3.70768,0,0,0,2.5628-.5857m-3.1269-2.5091-2.2351-3.3758,2.03271-1.3521,2.23869,3.3794a1.22216,1.22216,0,1,1-2.0363,1.3485"/>
        <polygon class="cls-3" points="134.387 18.017 128.882 9.501 128.864 9.519 128.864 9.438 126.426 9.376 126.086 22.181 128.529 22.245 128.749 13.787 134.272 22.331 134.269 22.398 136.703 22.462 137.045 9.655 134.611 9.592 134.387 18.017"/>
        <path class="cls-3" d="M146.7103,10.6326l-2.3658-.3277-.2866-.0412-6.4741,12.0368,2.6451.3672,1.4274-2.6453,5.0021.6931.6465,2.9318,2.647.3707-2.9586-13.3478Zm-3.82,7.0956,2.1974-4.0886,1.0065,4.5328Z"/>
        <polygon class="cls-3" points="198.727 46.381 202.799 36.973 200.865 35.122 195.442 47.667 195.65 47.869 197.374 49.517 197.577 49.719 209.879 43.77 207.955 41.92 198.727 46.381"/>
        <polygon class="cls-3" points="242.919 103.776 237.502 101.667 241.315 97.286 240.573 94.27 234.647 101.103 229.389 102.401 229.982 104.803 235.238 103.504 243.664 106.794 242.919 103.776"/>
        <polygon class="cls-3" points="187.617 36.004 187.082 25.878 187.051 25.878 187.093 25.812 185.015 24.54 178.339 35.474 180.42 36.743 184.834 29.523 185.364 39.688 185.33 39.743 187.411 41.015 194.086 30.081 192.007 28.81 187.617 36.004"/>
        <path class="cls-3" d="M226.95859,78.1298a5.15547,5.15547,0,0,0-.0287-1.2697,11.26447,11.26447,0,0,0-.2578-1.1999.28843.28843,0,0,1-.043-.1038,1.10941,1.10941,0,0,0-.0734-.283c-.2329-.8883-.40119-1.5295-.4854-1.9307a6.16564,6.16564,0,0,1-.1612-.9903,1.1797,1.1797,0,0,1,.1021-.6269,1.08125,1.08125,0,0,1,.45131-.4208,1.19126,1.19126,0,0,1,1.22319-.0287,2.459,2.459,0,0,1,.9689,1.0065,3.30689,3.30689,0,0,1,.505,1.7713,1.74118,1.74118,0,0,1-.9599,1.3557l1.3271,2.364a3.9114,3.9114,0,0,0,1.413-1.2608,3.54866,3.54866,0,0,0,.57671-1.5993,4.92083,4.92083,0,0,0-.154-1.773,8.0512,8.0512,0,0,0-.75221-1.8142,6.46981,6.46981,0,0,0-1.0567-1.3951,5.07624,5.07624,0,0,0-1.3736-.9851,3.60749,3.60749,0,0,0-1.5921-.3546,3.4029,3.4029,0,0,0-1.6477.471,3.2413,3.2413,0,0,0-1.1372.9868,2.886,2.886,0,0,0-.471,1.2268,5.19943,5.19943,0,0,0,0,1.3343c.0698.453.16651.9599.3044,1.5258.0556.1988.129.471.2096.8185.1576.5121.26151.9277.3313,1.2429a4.79488,4.79488,0,0,1,.1164.9187,1.90079,1.90079,0,0,1-.1325.7863,1.17129,1.17129,0,0,1-.5158.5533,1.29032,1.29032,0,0,1-.7934.1756,1.5269,1.5269,0,0,1-.72349-.2974,3.3,3.3,0,0,1-.609-.5748,4.548,4.548,0,0,1-.462-.6896,3.3584,3.3584,0,0,1-.48181-2.0451,2.038,2.038,0,0,1,1.1534-1.5581l-1.3217-2.3606a4.48166,4.48166,0,0,0-1.533,1.3576,4.08308,4.08308,0,0,0-.66089,1.7372,5.06681,5.06681,0,0,0,.13069,1.9091,7.59177,7.59177,0,0,0,.7612,1.9306,6.00185,6.00185,0,0,0,2.8959,2.8458,3.60645,3.60645,0,0,0,3.2434-.2274,3.22426,3.22426,0,0,0,1.2447-1.1462,3.11252,3.11252,0,0,0,.4692-1.3827"/>
        <path class="cls-3" d="M126.912,153.6529a35.91985,35.91985,0,0,0-21.758-3.6195l3.8469-26.6722a22.09306,22.09306,0,0,1,7.0509-1.1444,21.85312,21.85312,0,0,1,10.8602,2.8529,21.87779,21.87779,0,0,1,10.8548-2.8529,22.1024,22.1024,0,0,1,7.0617,1.1444l3.8397,26.6722a35.91413,35.91413,0,0,0-21.7562,3.6195"/>
        <path class="cls-3" d="M126.912,160.3216a29.98806,29.98806,0,0,0-16.5589-4.9662,30.5186,30.5186,0,0,0-6.1555.6286,44.26341,44.26341,0,0,0,19.9295,19.5587l.0698,10.6256a65.975,65.975,0,0,1-16.1684-9.4668,53.89565,53.89565,0,0,1-21.0023,7.3427l-2.3318-6.9846a46.61781,46.61781,0,0,0,17.6694-5.4122A66.00049,66.00049,0,0,1,82.9984,124.872H77.5522V111.3147H124.222v9.6262a24.70863,24.70863,0,0,0-17.5117.3027l-4.66,32.3943a33.07606,33.07606,0,0,1,24.8617,3.3401,33.09854,33.09854,0,0,1,24.8706-3.3401l-4.6672-32.3943a24.44744,24.44744,0,0,0-9.1498-1.7587,24.73217,24.73217,0,0,0-8.3672,1.456v-9.6262h46.6823V124.872h-5.4498a65.993,65.993,0,0,1-19.3563,46.7754,46.52234,46.52234,0,0,0,17.6639,5.4122l-2.33,6.9846a53.90291,53.90291,0,0,1-21.004-7.3427,66.26416,66.26416,0,0,1-16.1667,9.4668l.0752-10.6256a44.22686,44.22686,0,0,0,19.9169-19.5587,30.49013,30.49013,0,0,0-6.1554-.6286,30.01753,30.01753,0,0,0-16.5625,4.9662"/>
        <polygon class="cls-3" points="103.095 107.631 108.966 107.631 111.755 58.778 106.582 62.682 103.095 107.631"/>
        <polygon class="cls-3" points="93.427 107.631 99.4 107.631 103.747 64.819 98.442 68.825 93.427 107.631"/>
        <polygon class="cls-3" points="114.69 56.561 112.57 107.631 118.258 107.631 119.674 52.796 114.69 56.561"/>
        <polygon class="cls-3" points="150.617 107.631 144.748 107.631 141.953 58.778 147.13 62.682 150.617 107.631"/>
        <polygon class="cls-3" points="160.282 107.631 154.307 107.631 149.962 64.819 155.269 68.825 160.282 107.631"/>
        <polygon class="cls-3" points="139.018 56.561 141.142 107.631 135.451 107.631 134.03 52.796 139.018 56.561"/>
        <path class="cls-3" d="M102.5973,182.6131c1.5473,2.69,4.3501,4.8141,6.6174,6.8271a21.78151,21.78151,0,0,1-2.3639-8.8974,40.27355,40.27355,0,0,1-4.2535,2.0703"/>
        <path class="cls-3" d="M94.9541,171.7246l2.7061-1.1121-5.2546-6.691s1.5904,6.5298,2.5485,7.8031"/>
        <path class="cls-3" d="M144.5798,189.4402c2.2709-2.013,5.0719-4.1371,6.6175-6.827a40.62026,40.62026,0,0,1-4.2535-2.0704,21.75257,21.75257,0,0,1-2.364,8.8974"/>
        <path class="cls-3" d="M126.898,193.2405c-4.8588-.0072-7.2622-2.3945-9.2519-6.0569a65.42247,65.42247,0,0,1-7.7834-4.968c1.2876,8.6662,8.4263,15.2927,17.021,15.3106v.0054l.0143-.0054.0143.0054v-.0054c8.5947-.0179,15.7369-6.6444,17.0174-15.3106a65.03708,65.03708,0,0,1-7.7798,4.968c-1.9897,3.6624-4.3931,6.0497-9.2519,6.0569"/>
        <path class="cls-3" d="M156.1367,170.6123l2.7043,1.1122c.9581-1.2734,2.5467-7.8031,2.5467-7.8031Z"/>
        <rect class="cls-4" y="0.0007" width="253.83369" height="253.8319"/>
      </g>
    </g>
  </g>
</svg>
